<svg width="1285" height="844" viewBox="0 0 1285 844" fill="none" xmlns="http://www.w3.org/2000/svg">
<path d="M798.743 40.8094L758 10.6691L764.555 2.4248L798.743 27.7085L836.197 0L873.652 27.712L911.117 0L948.593 27.712L986.058 0L1023.55 27.712L1057.77 2.42133L1064.32 10.6726L1023.55 40.8059L986.058 13.0939L948.593 40.8059L911.117 13.0939L873.652 40.8059L836.197 13.0939L798.743 40.8094Z" fill="#CCBEFF"/>
<path d="M1279.76 576.603L1207.41 589.685L1259.11 641.973L1186.75 655.055L1238.45 707.343L1165.99 720.739L1217.69 773.027L1145.33 786.109L1197.03 838.397" stroke="#CCBEFF" stroke-width="10" stroke-linecap="round"/>
<path d="M56.3505 243L17.1265 305.195L90.6036 302.387L51.3796 364.582L124.857 361.773L85.7974 424.254L159.274 421.445L120.05 483.64L193.528 480.832" stroke="#CCBEFF" stroke-width="10" stroke-linecap="round"/>
<path d="M273.461 467.202C288.597 440.822 296.165 427.631 305.342 422.059C318.648 413.98 335.352 413.98 348.658 422.059C357.835 427.631 365.403 440.822 380.539 467.202L462.309 609.72C477.3 635.847 484.795 648.911 484.993 659.585C485.28 675.06 476.949 689.418 463.364 696.864C453.994 702 438.919 702 408.77 702H245.23C215.081 702 200.006 702 190.636 696.864C177.05 689.418 168.72 675.06 169.007 659.585C169.205 648.911 176.7 635.847 191.691 609.72L273.461 467.202Z" fill="#6750A4"/>
<path d="M259.461 481.202C274.597 454.822 282.165 441.631 291.342 436.059C304.648 427.98 321.352 427.98 334.658 436.059C343.835 441.631 351.403 454.822 366.539 481.202L448.309 623.72C463.3 649.847 470.795 662.911 470.993 673.585C471.28 689.06 462.949 703.418 449.364 710.864C439.994 716 424.919 716 394.77 716H231.23C201.081 716 186.006 716 176.636 710.864C163.05 703.418 154.72 689.06 155.007 673.585C155.205 662.911 162.7 649.847 177.691 623.72L259.461 481.202Z" fill="#D0BCFF"/>
<path d="M809.196 530.081C816.995 543.591 820.894 550.346 822.864 557.403C825.712 567.606 825.712 578.394 822.864 588.597C820.894 595.654 816.995 602.409 809.196 615.919L785.437 657.079C777.638 670.589 773.738 677.344 768.613 682.58C761.202 690.148 751.86 695.543 741.601 698.177C734.505 700 726.706 700 711.108 700L566.892 700C551.294 700 543.495 700 536.399 698.178C526.14 695.543 516.798 690.149 509.387 682.58C504.262 677.345 500.362 670.589 492.563 657.079L468.804 615.919C461.005 602.409 457.106 595.654 455.136 588.597C452.288 578.394 452.288 567.606 455.136 557.403C457.106 550.346 461.005 543.591 468.804 530.081L492.563 488.921C500.362 475.411 504.262 468.655 509.387 463.42C516.798 455.851 526.14 450.457 536.399 447.822C543.495 446 551.294 446 566.892 446L711.108 446C726.706 446 734.505 446 741.601 447.822C751.86 450.457 761.202 455.851 768.613 463.42C773.738 468.655 777.638 475.41 785.437 488.921L809.196 530.081Z" fill="#6750A4"/>
<path d="M798.196 546.081C805.995 559.591 809.894 566.346 811.864 573.403C814.712 583.606 814.712 594.394 811.864 604.597C809.894 611.654 805.995 618.409 798.196 631.919L774.437 673.079C766.638 686.589 762.738 693.344 757.613 698.58C750.202 706.148 740.86 711.543 730.601 714.177C723.505 716 715.706 716 700.108 716L555.892 716C540.294 716 532.495 716 525.399 714.178C515.14 711.543 505.798 706.149 498.387 698.58C493.262 693.345 489.362 686.589 481.563 673.079L457.804 631.919C450.005 618.409 446.106 611.654 444.136 604.597C441.288 594.394 441.288 583.606 444.136 573.403C446.106 566.346 450.005 559.591 457.804 546.081L481.563 504.921C489.362 491.411 493.262 484.655 498.387 479.42C505.798 471.851 515.14 466.457 525.399 463.822C532.495 462 540.294 462 555.892 462L700.108 462C715.706 462 723.505 462 730.601 463.822C740.86 466.457 750.202 471.851 757.613 479.42C762.738 484.655 766.638 491.41 774.437 504.921L798.196 546.081Z" fill="#D0BCFF"/>
<path d="M736.147 130.151C742.983 119.283 759.017 119.283 765.853 130.151L782.238 156.201C786.731 163.346 795.797 166.251 803.692 163.075L832.475 151.497C844.482 146.667 857.455 155.961 856.507 168.715L854.235 199.288C853.612 207.673 859.215 215.278 867.494 217.284L897.681 224.601C910.275 227.653 915.23 242.692 906.861 252.461L886.8 275.877C881.298 282.3 881.298 291.7 886.8 298.123L906.861 321.539C915.23 331.308 910.275 346.347 897.681 349.399L867.494 356.716C859.215 358.722 853.612 366.327 854.235 374.712L856.507 405.285C857.455 418.039 844.482 427.333 832.475 422.503L803.692 410.925C795.797 407.749 786.731 410.654 782.238 417.799L765.853 443.849C759.017 454.717 742.983 454.717 736.147 443.849L719.762 417.799C715.269 410.654 706.203 407.749 698.308 410.925L669.525 422.503C657.518 427.333 644.545 418.039 645.493 405.285L647.765 374.712C648.388 366.327 642.785 358.722 634.506 356.716L604.319 349.399C591.725 346.347 586.77 331.308 595.139 321.539L615.2 298.123C620.702 291.7 620.702 282.3 615.2 275.877L595.139 252.461C586.77 242.692 591.725 227.653 604.319 224.601L634.506 217.284C642.785 215.278 648.388 207.673 647.765 199.288L645.493 168.715C644.545 155.961 657.518 146.667 669.525 151.497L698.308 163.075C706.203 166.251 715.269 163.346 719.762 156.201L736.147 130.151Z" fill="#6750A4"/>
<path d="M723.147 144.151C729.983 133.283 746.017 133.283 752.853 144.151L769.238 170.201C773.731 177.346 782.797 180.251 790.692 177.075L819.475 165.497C831.482 160.667 844.455 169.961 843.507 182.715L841.235 213.288C840.612 221.673 846.215 229.278 854.494 231.284L884.681 238.601C897.275 241.653 902.23 256.692 893.861 266.461L873.8 289.877C868.298 296.3 868.298 305.7 873.8 312.123L893.861 335.539C902.23 345.308 897.275 360.347 884.681 363.399L854.494 370.716C846.215 372.722 840.612 380.327 841.235 388.712L843.507 419.285C844.455 432.039 831.482 441.333 819.475 436.503L790.692 424.925C782.797 421.749 773.731 424.654 769.238 431.799L752.853 457.849C746.017 468.717 729.983 468.717 723.147 457.849L706.762 431.799C702.269 424.654 693.203 421.749 685.308 424.925L656.525 436.503C644.518 441.333 631.545 432.039 632.493 419.285L634.765 388.712C635.388 380.327 629.785 372.722 621.506 370.716L591.319 363.399C578.725 360.347 573.77 345.308 582.139 335.539L602.2 312.123C607.702 305.7 607.702 296.3 602.2 289.877L582.139 266.461C573.77 256.692 578.725 241.653 591.319 238.601L621.506 231.284C629.785 229.278 635.388 221.673 634.765 213.288L632.493 182.715C631.545 169.961 644.518 160.667 656.525 165.497L685.308 177.075C693.203 180.251 702.269 177.346 706.762 170.201L723.147 144.151Z" fill="#D0BCFF"/>
<path d="M1154 551C1154 595.717 1154 618.076 1146.98 635.812C1136.81 661.485 1116.49 681.813 1090.81 691.978C1073.08 699 1050.72 699 1006 699H982C937.283 699 914.924 699 897.188 691.978C871.515 681.813 851.187 661.485 841.022 635.812C834 618.076 834 595.717 834 551L834 527C834 482.283 834 459.924 841.022 442.188C851.187 416.515 871.515 396.187 897.188 386.022C914.924 379 937.283 379 982 379L1006 379C1050.72 379 1073.08 379 1090.81 386.022C1116.49 396.187 1136.81 416.515 1146.98 442.188C1154 459.924 1154 482.283 1154 527V551Z" fill="#6750A4"/>
<path d="M1135 569C1135 613.717 1135 636.076 1127.98 653.812C1117.81 679.485 1097.49 699.813 1071.81 709.978C1054.08 717 1031.72 717 987 717H963C918.283 717 895.924 717 878.188 709.978C852.515 699.813 832.187 679.485 822.022 653.812C815 636.076 815 613.717 815 569L815 545C815 500.283 815 477.924 822.022 460.188C832.187 434.515 852.515 414.187 878.188 404.022C895.924 397 918.283 397 963 397L987 397C1031.72 397 1054.08 397 1071.81 404.022C1097.49 414.187 1117.81 434.515 1127.98 460.188C1135 477.924 1135 500.283 1135 545V569Z" fill="#D0BCFF"/>
<path d="M1135 569C1135 613.717 1135 636.076 1127.98 653.812C1117.81 679.485 1097.49 699.813 1071.81 709.978C1054.08 717 1031.72 717 987 717H963C918.283 717 895.924 717 878.188 709.978C852.515 699.813 832.187 679.485 822.022 653.812C815 636.076 815 613.717 815 569L815 545C815 500.283 815 477.924 822.022 460.188C832.187 434.515 852.515 414.187 878.188 404.022C895.924 397 918.283 397 963 397L987 397C1031.72 397 1054.08 397 1071.81 404.022C1097.49 414.187 1117.81 434.515 1127.98 460.188C1135 477.924 1135 500.283 1135 545V569Z" fill="#D0BCFF"/>
<path d="M1135 569C1135 613.717 1135 636.076 1127.98 653.812C1117.81 679.485 1097.49 699.813 1071.81 709.978C1054.08 717 1031.72 717 987 717H963C918.283 717 895.924 717 878.188 709.978C852.515 699.813 832.187 679.485 822.022 653.812C815 636.076 815 613.717 815 569L815 545C815 500.283 815 477.924 822.022 460.188C832.187 434.515 852.515 414.187 878.188 404.022C895.924 397 918.283 397 963 397L987 397C1031.72 397 1054.08 397 1071.81 404.022C1097.49 414.187 1117.81 434.515 1127.98 460.188C1135 477.924 1135 500.283 1135 545V569Z" fill="#D0BCFF"/>
<path d="M1154 551C1154 595.717 1154 618.076 1146.98 635.812C1136.81 661.485 1116.49 681.813 1090.81 691.978C1073.08 699 1050.72 699 1006 699H982C937.283 699 914.924 699 897.188 691.978C871.515 681.813 851.187 661.485 841.022 635.812C834 618.076 834 595.717 834 551L834 527C834 482.283 834 459.924 841.022 442.188C851.187 416.515 871.515 396.187 897.188 386.022C914.924 379 937.283 379 982 379L1006 379C1050.72 379 1073.08 379 1090.81 386.022C1116.49 396.187 1136.81 416.515 1146.98 442.188C1154 459.924 1154 482.283 1154 527V551Z" fill="#6750A4"/>
<path d="M1154 551C1154 595.717 1154 618.076 1146.98 635.812C1136.81 661.485 1116.49 681.813 1090.81 691.978C1073.08 699 1050.72 699 1006 699H982C937.283 699 914.924 699 897.188 691.978C871.515 681.813 851.187 661.485 841.022 635.812C834 618.076 834 595.717 834 551L834 527C834 482.283 834 459.924 841.022 442.188C851.187 416.515 871.515 396.187 897.188 386.022C914.924 379 937.283 379 982 379L1006 379C1050.72 379 1073.08 379 1090.81 386.022C1116.49 396.187 1136.81 416.515 1146.98 442.188C1154 459.924 1154 482.283 1154 527V551Z" fill="#6750A4"/>
<path d="M1154 551C1154 595.717 1154 618.076 1146.98 635.812C1136.81 661.485 1116.49 681.813 1090.81 691.978C1073.08 699 1050.72 699 1006 699H982C937.283 699 914.924 699 897.188 691.978C871.515 681.813 851.187 661.485 841.022 635.812C834 618.076 834 595.717 834 551L834 527C834 482.283 834 459.924 841.022 442.188C851.187 416.515 871.515 396.187 897.188 386.022C914.924 379 937.283 379 982 379L1006 379C1050.72 379 1073.08 379 1090.81 386.022C1116.49 396.187 1136.81 416.515 1146.98 442.188C1154 459.924 1154 482.283 1154 527V551Z" fill="#6750A4"/>
<path d="M1135 569C1135 613.717 1135 636.076 1127.98 653.812C1117.81 679.485 1097.49 699.813 1071.81 709.978C1054.08 717 1031.72 717 987 717H963C918.283 717 895.924 717 878.188 709.978C852.515 699.813 832.187 679.485 822.022 653.812C815 636.076 815 613.717 815 569L815 545C815 500.283 815 477.924 822.022 460.188C832.187 434.515 852.515 414.187 878.188 404.022C895.924 397 918.283 397 963 397L987 397C1031.72 397 1054.08 397 1071.81 404.022C1097.49 414.187 1117.81 434.515 1127.98 460.188C1135 477.924 1135 500.283 1135 545V569Z" fill="#D0BCFF"/>
<path d="M1135 569C1135 613.717 1135 636.076 1127.98 653.812C1117.81 679.485 1097.49 699.813 1071.81 709.978C1054.08 717 1031.72 717 987 717H963C918.283 717 895.924 717 878.188 709.978C852.515 699.813 832.187 679.485 822.022 653.812C815 636.076 815 613.717 815 569L815 545C815 500.283 815 477.924 822.022 460.188C832.187 434.515 852.515 414.187 878.188 404.022C895.924 397 918.283 397 963 397L987 397C1031.72 397 1054.08 397 1071.81 404.022C1097.49 414.187 1117.81 434.515 1127.98 460.188C1135 477.924 1135 500.283 1135 545V569Z" fill="#D0BCFF"/>
<path d="M1135 569C1135 613.717 1135 636.076 1127.98 653.812C1117.81 679.485 1097.49 699.813 1071.81 709.978C1054.08 717 1031.72 717 987 717H963C918.283 717 895.924 717 878.188 709.978C852.515 699.813 832.187 679.485 822.022 653.812C815 636.076 815 613.717 815 569L815 545C815 500.283 815 477.924 822.022 460.188C832.187 434.515 852.515 414.187 878.188 404.022C895.924 397 918.283 397 963 397L987 397C1031.72 397 1054.08 397 1071.81 404.022C1097.49 414.187 1117.81 434.515 1127.98 460.188C1135 477.924 1135 500.283 1135 545V569Z" fill="#D0BCFF"/>
<g clip-path="url(#clip0_11_147)">
<path d="M549.193 436.663C544.672 454.364 526.658 465.049 508.957 460.528L263.011 397.709C245.31 393.188 234.626 375.173 239.147 357.472L240.86 350.767C262.728 265.15 349.861 213.471 435.478 235.339C521.095 257.207 572.774 344.341 550.906 429.958L549.193 436.663Z" fill="#6750A4"/>
</g>
<g clip-path="url(#clip1_11_147)">
<path d="M529.731 448.206C525.21 465.907 507.196 476.591 489.495 472.07L243.549 409.252C225.848 404.731 215.164 386.716 219.685 369.015L221.398 362.31C243.266 276.693 330.399 225.014 416.016 246.882C501.633 268.75 553.312 355.884 531.444 441.501L529.731 448.206Z" fill="#D0BCFF"/>
</g>
<path d="M562.8 586.344L604.08 568.968L607.824 580.584L577.68 592.296L607.824 604.008L604.08 615.624L562.8 598.248V586.344ZM624.851 638.76H610.162L642.419 545.832H656.915L624.851 638.76ZM704.197 598.248L662.917 615.624L659.173 604.008L689.317 592.296L659.173 580.584L662.917 568.968L704.197 586.344V598.248Z" fill="#63519F"/>
<path d="M553.8 590.344L595.08 572.968L598.824 584.584L568.68 596.296L598.824 608.008L595.08 619.624L553.8 602.248V590.344ZM615.851 642.76H601.162L633.419 549.832H647.915L615.851 642.76ZM695.197 602.248L653.917 619.624L650.173 608.008L680.317 596.296L650.173 584.584L653.917 572.968L695.197 590.344V602.248Z" fill="#9F86FF"/>
<path d="M553.8 590.344L595.08 572.968L598.824 584.584L568.68 596.296L598.824 608.008L595.08 619.624L553.8 602.248V590.344ZM615.851 642.76H601.162L633.419 549.832H647.915L615.851 642.76ZM695.197 602.248L653.917 619.624L650.173 608.008L680.317 596.296L650.173 584.584L653.917 572.968L695.197 590.344V602.248Z" fill="#9F86FF"/>
<path d="M678.363 288V260H692.043C695.563 260 698.203 260.667 699.963 262C701.75 263.333 702.643 265.093 702.643 267.28C702.643 268.747 702.283 270.027 701.563 271.12C700.843 272.187 699.856 273.013 698.603 273.6C697.35 274.187 695.91 274.48 694.283 274.48L695.043 272.84C696.803 272.84 698.363 273.133 699.723 273.72C701.083 274.28 702.136 275.12 702.883 276.24C703.656 277.36 704.043 278.733 704.043 280.36C704.043 282.76 703.096 284.64 701.203 286C699.31 287.333 696.523 288 692.843 288H678.363ZM684.803 283.12H692.363C694.043 283.12 695.31 282.853 696.163 282.32C697.043 281.76 697.483 280.88 697.483 279.68C697.483 278.507 697.043 277.64 696.163 277.08C695.31 276.493 694.043 276.2 692.363 276.2H684.323V271.48H691.243C692.816 271.48 694.016 271.213 694.843 270.68C695.696 270.12 696.123 269.28 696.123 268.16C696.123 267.067 695.696 266.253 694.843 265.72C694.016 265.16 692.816 264.88 691.243 264.88H684.803V283.12ZM719.189 288.32C716.736 288.32 714.576 287.84 712.709 286.88C710.869 285.92 709.442 284.613 708.429 282.96C707.416 281.28 706.909 279.373 706.909 277.24C706.909 275.08 707.402 273.173 708.389 271.52C709.402 269.84 710.776 268.533 712.509 267.6C714.242 266.64 716.202 266.16 718.389 266.16C720.496 266.16 722.389 266.613 724.069 267.52C725.776 268.4 727.122 269.68 728.109 271.36C729.096 273.013 729.589 275 729.589 277.32C729.589 277.56 729.576 277.84 729.549 278.16C729.522 278.453 729.496 278.733 729.469 279H711.989V275.36H726.189L723.789 276.44C723.789 275.32 723.562 274.347 723.109 273.52C722.656 272.693 722.029 272.053 721.229 271.6C720.429 271.12 719.496 270.88 718.429 270.88C717.362 270.88 716.416 271.12 715.589 271.6C714.789 272.053 714.162 272.707 713.709 273.56C713.256 274.387 713.029 275.373 713.029 276.52V277.48C713.029 278.653 713.282 279.693 713.789 280.6C714.322 281.48 715.056 282.16 715.989 282.64C716.949 283.093 718.069 283.32 719.349 283.32C720.496 283.32 721.496 283.147 722.349 282.8C723.229 282.453 724.029 281.933 724.749 281.24L728.069 284.84C727.082 285.96 725.842 286.827 724.349 287.44C722.856 288.027 721.136 288.32 719.189 288.32ZM742.543 288.32C740.01 288.32 738.037 287.68 736.623 286.4C735.21 285.093 734.503 283.16 734.503 280.6V261.72H740.743V280.52C740.743 281.427 740.983 282.133 741.463 282.64C741.943 283.12 742.597 283.36 743.423 283.36C744.41 283.36 745.25 283.093 745.943 282.56L747.623 286.96C746.983 287.413 746.21 287.76 745.303 288C744.423 288.213 743.503 288.32 742.543 288.32ZM731.183 271.76V266.96H746.103V271.76H731.183ZM759.457 288.32C756.924 288.32 754.951 287.68 753.537 286.4C752.124 285.093 751.417 283.16 751.417 280.6V261.72H757.657V280.52C757.657 281.427 757.897 282.133 758.377 282.64C758.857 283.12 759.511 283.36 760.337 283.36C761.324 283.36 762.164 283.093 762.857 282.56L764.537 286.96C763.897 287.413 763.124 287.76 762.217 288C761.337 288.213 760.417 288.32 759.457 288.32ZM748.097 271.76V266.96H763.017V271.76H748.097ZM778.056 288.32C775.603 288.32 773.443 287.84 771.576 286.88C769.736 285.92 768.309 284.613 767.296 282.96C766.283 281.28 765.776 279.373 765.776 277.24C765.776 275.08 766.269 273.173 767.256 271.52C768.269 269.84 769.643 268.533 771.376 267.6C773.109 266.64 775.069 266.16 777.256 266.16C779.363 266.16 781.256 266.613 782.936 267.52C784.643 268.4 785.989 269.68 786.976 271.36C787.963 273.013 788.456 275 788.456 277.32C788.456 277.56 788.443 277.84 788.416 278.16C788.389 278.453 788.363 278.733 788.336 279H770.856V275.36H785.056L782.656 276.44C782.656 275.32 782.429 274.347 781.976 273.52C781.523 272.693 780.896 272.053 780.096 271.6C779.296 271.12 778.363 270.88 777.296 270.88C776.229 270.88 775.283 271.12 774.456 271.6C773.656 272.053 773.029 272.707 772.576 273.56C772.123 274.387 771.896 275.373 771.896 276.52V277.48C771.896 278.653 772.149 279.693 772.656 280.6C773.189 281.48 773.923 282.16 774.856 282.64C775.816 283.093 776.936 283.32 778.216 283.32C779.363 283.32 780.363 283.147 781.216 282.8C782.096 282.453 782.896 281.933 783.616 281.24L786.936 284.84C785.949 285.96 784.709 286.827 783.216 287.44C781.723 288.027 780.003 288.32 778.056 288.32ZM792.61 288V266.48H798.57V272.56L797.73 270.8C798.37 269.28 799.397 268.133 800.81 267.36C802.224 266.56 803.944 266.16 805.97 266.16V271.92C805.704 271.893 805.464 271.88 805.25 271.88C805.037 271.853 804.81 271.84 804.57 271.84C802.864 271.84 801.477 272.333 800.41 273.32C799.37 274.28 798.85 275.787 798.85 277.84V288H792.61ZM656.039 337V309H669.719C673.239 309 675.879 309.667 677.639 311C679.425 312.333 680.319 314.093 680.319 316.28C680.319 317.747 679.959 319.027 679.239 320.12C678.519 321.187 677.532 322.013 676.279 322.6C675.025 323.187 673.585 323.48 671.959 323.48L672.719 321.84C674.479 321.84 676.039 322.133 677.399 322.72C678.759 323.28 679.812 324.12 680.559 325.24C681.332 326.36 681.719 327.733 681.719 329.36C681.719 331.76 680.772 333.64 678.879 335C676.985 336.333 674.199 337 670.519 337H656.039ZM662.479 332.12H670.039C671.719 332.12 672.985 331.853 673.839 331.32C674.719 330.76 675.159 329.88 675.159 328.68C675.159 327.507 674.719 326.64 673.839 326.08C672.985 325.493 671.719 325.2 670.039 325.2H661.999V320.48H668.919C670.492 320.48 671.692 320.213 672.519 319.68C673.372 319.12 673.799 318.28 673.799 317.16C673.799 316.067 673.372 315.253 672.519 314.72C671.692 314.16 670.492 313.88 668.919 313.88H662.479V332.12ZM696.865 337.32C694.411 337.32 692.251 336.84 690.385 335.88C688.545 334.92 687.118 333.613 686.105 331.96C685.091 330.28 684.585 328.373 684.585 326.24C684.585 324.08 685.078 322.173 686.065 320.52C687.078 318.84 688.451 317.533 690.185 316.6C691.918 315.64 693.878 315.16 696.065 315.16C698.171 315.16 700.065 315.613 701.745 316.52C703.451 317.4 704.798 318.68 705.785 320.36C706.771 322.013 707.265 324 707.265 326.32C707.265 326.56 707.251 326.84 707.225 327.16C707.198 327.453 707.171 327.733 707.145 328H689.665V324.36H703.865L701.465 325.44C701.465 324.32 701.238 323.347 700.785 322.52C700.331 321.693 699.705 321.053 698.905 320.6C698.105 320.12 697.171 319.88 696.105 319.88C695.038 319.88 694.091 320.12 693.265 320.6C692.465 321.053 691.838 321.707 691.385 322.56C690.931 323.387 690.705 324.373 690.705 325.52V326.48C690.705 327.653 690.958 328.693 691.465 329.6C691.998 330.48 692.731 331.16 693.665 331.64C694.625 332.093 695.745 332.32 697.025 332.32C698.171 332.32 699.171 332.147 700.025 331.8C700.905 331.453 701.705 330.933 702.425 330.24L705.745 333.84C704.758 334.96 703.518 335.827 702.025 336.44C700.531 337.027 698.811 337.32 696.865 337.32ZM720.659 337.32C718.632 337.32 716.806 336.867 715.179 335.96C713.552 335.027 712.259 333.733 711.299 332.08C710.366 330.427 709.899 328.48 709.899 326.24C709.899 323.973 710.366 322.013 711.299 320.36C712.259 318.707 713.552 317.427 715.179 316.52C716.806 315.613 718.632 315.16 720.659 315.16C722.472 315.16 724.059 315.56 725.419 316.36C726.779 317.16 727.832 318.373 728.579 320C729.326 321.627 729.699 323.707 729.699 326.24C729.699 328.747 729.339 330.827 728.619 332.48C727.899 334.107 726.859 335.32 725.499 336.12C724.166 336.92 722.552 337.32 720.659 337.32ZM721.739 332.2C722.752 332.2 723.672 331.96 724.499 331.48C725.326 331 725.979 330.32 726.459 329.44C726.966 328.533 727.219 327.467 727.219 326.24C727.219 324.987 726.966 323.92 726.459 323.04C725.979 322.16 725.326 321.48 724.499 321C723.672 320.52 722.752 320.28 721.739 320.28C720.699 320.28 719.766 320.52 718.939 321C718.112 321.48 717.446 322.16 716.939 323.04C716.459 323.92 716.219 324.987 716.219 326.24C716.219 327.467 716.459 328.533 716.939 329.44C717.446 330.32 718.112 331 718.939 331.48C719.766 331.96 720.699 332.2 721.739 332.2ZM727.379 337V332.6L727.499 326.2L727.099 319.84V307.32H733.339V337H727.379ZM739.114 337V315.48H745.074V321.56L744.234 319.8C744.874 318.28 745.901 317.133 747.314 316.36C748.728 315.56 750.448 315.16 752.474 315.16V320.92C752.208 320.893 751.968 320.88 751.754 320.88C751.541 320.853 751.314 320.84 751.074 320.84C749.368 320.84 747.981 321.333 746.914 322.32C745.874 323.28 745.354 324.787 745.354 326.84V337H739.114ZM766.268 337.32C763.975 337.32 761.935 336.84 760.148 335.88C758.388 334.92 756.988 333.613 755.948 331.96C754.935 330.28 754.428 328.373 754.428 326.24C754.428 324.08 754.935 322.173 755.948 320.52C756.988 318.84 758.388 317.533 760.148 316.6C761.935 315.64 763.975 315.16 766.268 315.16C768.535 315.16 770.562 315.64 772.348 316.6C774.135 317.533 775.535 318.827 776.548 320.48C777.562 322.133 778.068 324.053 778.068 326.24C778.068 328.373 777.562 330.28 776.548 331.96C775.535 333.613 774.135 334.92 772.348 335.88C770.562 336.84 768.535 337.32 766.268 337.32ZM766.268 332.2C767.308 332.2 768.242 331.96 769.068 331.48C769.895 331 770.548 330.32 771.028 329.44C771.508 328.533 771.748 327.467 771.748 326.24C771.748 324.987 771.508 323.92 771.028 323.04C770.548 322.16 769.895 321.48 769.068 321C768.242 320.52 767.308 320.28 766.268 320.28C765.228 320.28 764.295 320.52 763.468 321C762.642 321.48 761.975 322.16 761.468 323.04C760.988 323.92 760.748 324.987 760.748 326.24C760.748 327.467 760.988 328.533 761.468 329.44C761.975 330.32 762.642 331 763.468 331.48C764.295 331.96 765.228 332.2 766.268 332.2ZM792.639 337.32C790.319 337.32 788.253 336.853 786.439 335.92C784.626 334.96 783.199 333.64 782.159 331.96C781.146 330.28 780.639 328.373 780.639 326.24C780.639 324.08 781.146 322.173 782.159 320.52C783.199 318.84 784.626 317.533 786.439 316.6C788.253 315.64 790.319 315.16 792.639 315.16C794.906 315.16 796.879 315.64 798.559 316.6C800.239 317.533 801.479 318.88 802.279 320.64L797.439 323.24C796.879 322.227 796.173 321.48 795.319 321C794.493 320.52 793.586 320.28 792.599 320.28C791.533 320.28 790.573 320.52 789.719 321C788.866 321.48 788.186 322.16 787.679 323.04C787.199 323.92 786.959 324.987 786.959 326.24C786.959 327.493 787.199 328.56 787.679 329.44C788.186 330.32 788.866 331 789.719 331.48C790.573 331.96 791.533 332.2 792.599 332.2C793.586 332.2 794.493 331.973 795.319 331.52C796.173 331.04 796.879 330.28 797.439 329.24L802.279 331.88C801.479 333.613 800.239 334.96 798.559 335.92C796.879 336.853 794.906 337.32 792.639 337.32ZM810.915 332.6L811.075 325L821.115 315.48H828.555L818.915 325.28L815.675 327.92L810.915 332.6ZM805.755 337V307.32H811.995V337H805.755ZM821.795 337L814.515 327.96L818.435 323.12L829.355 337H821.795Z" fill="#63519F"/>
<path d="M233.91 638V610H246.63C249.67 610 252.35 610.587 254.67 611.76C256.99 612.907 258.803 614.52 260.11 616.6C261.417 618.68 262.07 621.147 262.07 624C262.07 626.827 261.417 629.293 260.11 631.4C258.803 633.48 256.99 635.107 254.67 636.28C252.35 637.427 249.67 638 246.63 638H233.91ZM240.39 632.68H246.31C248.177 632.68 249.79 632.333 251.15 631.64C252.537 630.92 253.603 629.907 254.35 628.6C255.123 627.293 255.51 625.76 255.51 624C255.51 622.213 255.123 620.68 254.35 619.4C253.603 618.093 252.537 617.093 251.15 616.4C249.79 615.68 248.177 615.32 246.31 615.32H240.39V632.68ZM279.717 638V633.8L279.317 632.88V625.36C279.317 624.027 278.903 622.987 278.077 622.24C277.277 621.493 276.037 621.12 274.357 621.12C273.21 621.12 272.077 621.307 270.957 621.68C269.863 622.027 268.93 622.507 268.157 623.12L265.917 618.76C267.09 617.933 268.503 617.293 270.157 616.84C271.81 616.387 273.49 616.16 275.197 616.16C278.477 616.16 281.023 616.933 282.837 618.48C284.65 620.027 285.557 622.44 285.557 625.72V638H279.717ZM273.157 638.32C271.477 638.32 270.037 638.04 268.837 637.48C267.637 636.893 266.717 636.107 266.077 635.12C265.437 634.133 265.117 633.027 265.117 631.8C265.117 630.52 265.423 629.4 266.037 628.44C266.677 627.48 267.677 626.733 269.037 626.2C270.397 625.64 272.17 625.36 274.357 625.36H280.077V629H275.037C273.57 629 272.557 629.24 271.997 629.72C271.463 630.2 271.197 630.8 271.197 631.52C271.197 632.32 271.503 632.96 272.117 633.44C272.757 633.893 273.623 634.12 274.717 634.12C275.757 634.12 276.69 633.88 277.517 633.4C278.343 632.893 278.943 632.16 279.317 631.2L280.277 634.08C279.823 635.467 278.997 636.52 277.797 637.24C276.597 637.96 275.05 638.32 273.157 638.32ZM293.534 646.08C292.414 646.08 291.307 645.907 290.214 645.56C289.12 645.213 288.227 644.733 287.534 644.12L289.814 639.68C290.294 640.107 290.84 640.44 291.454 640.68C292.094 640.92 292.72 641.04 293.334 641.04C294.214 641.04 294.907 640.827 295.414 640.4C295.947 640 296.427 639.32 296.854 638.36L297.974 635.72L298.454 635.04L306.174 616.48H312.174L302.454 639.32C301.76 641.053 300.96 642.413 300.054 643.4C299.174 644.387 298.187 645.08 297.094 645.48C296.027 645.88 294.84 646.08 293.534 646.08ZM297.214 638.84L287.614 616.48H294.054L301.494 634.48L297.214 638.84ZM314.72 638V608.32H320.96V638H314.72ZM329.471 646.08C328.351 646.08 327.244 645.907 326.151 645.56C325.058 645.213 324.164 644.733 323.471 644.12L325.751 639.68C326.231 640.107 326.778 640.44 327.391 640.68C328.031 640.92 328.658 641.04 329.271 641.04C330.151 641.04 330.844 640.827 331.351 640.4C331.884 640 332.364 639.32 332.791 638.36L333.911 635.72L334.391 635.04L342.111 616.48H348.111L338.391 639.32C337.698 641.053 336.898 642.413 335.991 643.4C335.111 644.387 334.124 645.08 333.031 645.48C331.964 645.88 330.778 646.08 329.471 646.08ZM333.151 638.84L323.551 616.48H329.991L337.431 634.48L333.151 638.84ZM360.043 638.32C357.51 638.32 355.537 637.68 354.123 636.4C352.71 635.093 352.003 633.16 352.003 630.6V611.72H358.243V630.52C358.243 631.427 358.483 632.133 358.963 632.64C359.443 633.12 360.097 633.36 360.923 633.36C361.91 633.36 362.75 633.093 363.443 632.56L365.123 636.96C364.483 637.413 363.71 637.76 362.803 638C361.923 638.213 361.003 638.32 360.043 638.32ZM348.683 621.76V616.96H363.603V621.76H348.683ZM368.626 638V616.48H374.866V638H368.626ZM371.746 613.48C370.599 613.48 369.666 613.147 368.946 612.48C368.226 611.813 367.866 610.987 367.866 610C367.866 609.013 368.226 608.187 368.946 607.52C369.666 606.853 370.599 606.52 371.746 606.52C372.893 606.52 373.826 606.84 374.546 607.48C375.266 608.093 375.626 608.893 375.626 609.88C375.626 610.92 375.266 611.787 374.546 612.48C373.853 613.147 372.919 613.48 371.746 613.48ZM391.057 638.32C388.737 638.32 386.671 637.853 384.857 636.92C383.044 635.96 381.617 634.64 380.577 632.96C379.564 631.28 379.057 629.373 379.057 627.24C379.057 625.08 379.564 623.173 380.577 621.52C381.617 619.84 383.044 618.533 384.857 617.6C386.671 616.64 388.737 616.16 391.057 616.16C393.324 616.16 395.297 616.64 396.977 617.6C398.657 618.533 399.897 619.88 400.697 621.64L395.857 624.24C395.297 623.227 394.591 622.48 393.737 622C392.911 621.52 392.004 621.28 391.017 621.28C389.951 621.28 388.991 621.52 388.137 622C387.284 622.48 386.604 623.16 386.097 624.04C385.617 624.92 385.377 625.987 385.377 627.24C385.377 628.493 385.617 629.56 386.097 630.44C386.604 631.32 387.284 632 388.137 632.48C388.991 632.96 389.951 633.2 391.017 633.2C392.004 633.2 392.911 632.973 393.737 632.52C394.591 632.04 395.297 631.28 395.857 630.24L400.697 632.88C399.897 634.613 398.657 635.96 396.977 636.92C395.297 637.853 393.324 638.32 391.057 638.32Z" fill="#63519F"/>
<path d="M296.6 348.093L303.565 320.973L315.304 323.988C317.732 324.612 319.721 325.549 321.272 326.801C322.829 328.027 323.896 329.499 324.474 331.216C325.052 332.934 325.078 334.813 324.554 336.853C324.037 338.868 323.111 340.489 321.778 341.716C320.444 342.942 318.796 343.731 316.834 344.08C314.879 344.404 312.687 344.254 310.259 343.631L302.007 341.511L305.523 339.4L302.876 349.705L296.6 348.093ZM305.344 340.097L303.32 336.397L311.224 338.427C313.161 338.925 314.714 338.883 315.881 338.302C317.049 337.721 317.822 336.694 318.2 335.222C318.585 333.724 318.406 332.439 317.662 331.367C316.919 330.295 315.579 329.51 313.642 329.013L305.738 326.983L309.294 324.716L305.344 340.097ZM333.972 358.021C331.751 357.451 329.894 356.479 328.403 355.104C326.937 353.737 325.906 352.123 325.31 350.263C324.746 348.384 324.73 346.411 325.26 344.344C325.798 342.252 326.763 340.532 328.155 339.182C329.581 337.814 331.262 336.896 333.198 336.43C335.168 335.945 337.263 335.987 339.484 336.558C341.68 337.122 343.523 338.091 345.015 339.465C346.513 340.813 347.548 342.414 348.118 344.268C348.688 346.121 348.701 348.107 348.157 350.225C347.627 352.291 346.662 354.012 345.262 355.387C343.87 356.736 342.189 357.654 340.219 358.139C338.25 358.624 336.168 358.585 333.972 358.021ZM335.246 353.062C336.253 353.321 337.217 353.321 338.137 353.061C339.057 352.802 339.859 352.306 340.543 351.573C341.233 350.814 341.731 349.841 342.036 348.653C342.348 347.439 342.381 346.346 342.135 345.374C341.889 344.402 341.425 343.581 340.744 342.911C340.062 342.24 339.218 341.776 338.211 341.517C337.203 341.258 336.24 341.259 335.32 341.518C334.4 341.777 333.585 342.27 332.875 342.996C332.191 343.729 331.693 344.703 331.382 345.917C331.077 347.105 331.044 348.197 331.283 349.195C331.555 350.173 332.032 350.998 332.713 351.668C333.394 352.339 334.238 352.804 335.246 353.062ZM349.521 361.684L354.874 340.84L360.646 342.323L359.134 348.212L358.758 346.298C359.756 344.985 361.036 344.13 362.597 343.732C364.165 343.309 365.93 343.35 367.893 343.854L366.461 349.433C366.209 349.34 365.98 349.268 365.773 349.215C365.573 349.136 365.357 349.067 365.124 349.007C363.471 348.582 362.006 348.715 360.727 349.406C359.481 350.077 358.603 351.407 358.092 353.395L355.565 363.236L349.521 361.684ZM375.217 368.614C372.763 367.983 371.011 366.873 369.961 365.281C368.917 363.664 368.713 361.616 369.35 359.136L374.046 340.85L380.09 342.402L375.414 360.611C375.188 361.489 375.245 362.233 375.584 362.843C375.93 363.428 376.503 363.823 377.303 364.028C378.259 364.274 379.139 364.224 379.943 363.88L380.476 368.56C379.743 368.84 378.908 368.983 377.97 368.99C377.065 368.978 376.147 368.852 375.217 368.614ZM368.333 349.748L369.527 345.099L383.978 348.81L382.784 353.46L368.333 349.748ZM384.346 370.628L389.818 349.319C390.422 346.969 391.6 345.275 393.353 344.239C395.113 343.176 397.284 342.977 399.867 343.64C400.745 343.866 401.561 344.171 402.315 344.558C403.095 344.951 403.72 345.414 404.189 345.948L401.476 349.918C401.2 349.599 400.872 349.322 400.492 349.087C400.111 348.851 399.689 348.674 399.224 348.555C398.346 348.329 397.595 348.412 396.972 348.802C396.381 349.173 395.956 349.863 395.697 350.87L395.2 352.807L394.688 355.443L390.39 372.18L384.346 370.628ZM385.17 354.072L386.364 349.423L400.815 353.134L399.621 357.783L385.17 354.072ZM408.166 377.075C405.945 376.505 404.088 375.532 402.597 374.158C401.131 372.791 400.1 371.177 399.504 369.317C398.94 367.437 398.924 365.465 399.454 363.398C399.992 361.306 400.957 359.586 402.349 358.236C403.775 356.868 405.456 355.95 407.392 355.484C409.362 354.999 411.457 355.041 413.678 355.612C415.874 356.176 417.717 357.145 419.209 358.519C420.707 359.867 421.742 361.468 422.312 363.322C422.882 365.175 422.895 367.161 422.351 369.279C421.821 371.345 420.856 373.066 419.456 374.441C418.064 375.79 416.383 376.707 414.413 377.193C412.444 377.678 410.362 377.639 408.166 377.075ZM409.44 372.116C410.447 372.375 411.411 372.375 412.331 372.115C413.251 371.856 414.053 371.36 414.737 370.627C415.427 369.868 415.925 368.895 416.23 367.707C416.542 366.493 416.575 365.4 416.329 364.428C416.083 363.456 415.619 362.635 414.938 361.965C414.256 361.294 413.412 360.83 412.405 360.571C411.397 360.312 410.434 360.312 409.514 360.572C408.594 360.831 407.779 361.324 407.069 362.05C406.385 362.783 405.887 363.757 405.576 364.97C405.271 366.159 405.238 367.251 405.477 368.249C405.749 369.227 406.226 370.052 406.907 370.722C407.588 371.393 408.432 371.858 409.44 372.116ZM423.715 380.738L431.097 351.991L437.141 353.543L429.759 382.29L423.715 380.738ZM435.368 383.731L440.721 362.887L446.765 364.439L441.412 385.283L435.368 383.731ZM444.489 360.757C443.378 360.472 442.557 359.917 442.026 359.092C441.494 358.267 441.351 357.377 441.596 356.422C441.842 355.466 442.396 354.755 443.259 354.288C444.123 353.822 445.109 353.731 446.22 354.016C447.331 354.301 448.155 354.843 448.693 355.642C449.238 356.416 449.388 357.28 449.142 358.236C448.884 359.243 448.319 359.993 447.45 360.485C446.612 360.959 445.625 361.049 444.489 360.757ZM456.859 389.58C454.638 389.01 452.782 388.038 451.29 386.663C449.824 385.296 448.793 383.682 448.197 381.822C447.633 379.943 447.617 377.97 448.148 375.903C448.685 373.811 449.65 372.091 451.043 370.741C452.468 369.373 454.149 368.455 456.086 367.989C458.055 367.504 460.15 367.546 462.372 368.117C464.567 368.681 466.411 369.65 467.902 371.024C469.401 372.372 470.435 373.973 471.005 375.827C471.575 377.68 471.589 379.666 471.045 381.784C470.514 383.85 469.549 385.571 468.15 386.946C466.757 388.295 465.076 389.213 463.107 389.698C461.137 390.183 459.055 390.144 456.859 389.58ZM458.133 384.621C459.14 384.88 460.104 384.88 461.024 384.62C461.944 384.361 462.746 383.865 463.43 383.132C464.12 382.373 464.618 381.4 464.923 380.212C465.235 378.998 465.268 377.905 465.022 376.933C464.776 375.961 464.312 375.14 463.631 374.47C462.95 373.799 462.105 373.335 461.098 373.076C460.091 372.817 459.127 372.818 458.207 373.077C457.287 373.336 456.472 373.829 455.762 374.555C455.079 375.288 454.581 376.262 454.269 377.476C453.964 378.664 453.931 379.756 454.17 380.754C454.442 381.732 454.919 382.557 455.6 383.227C456.281 383.898 457.126 384.363 458.133 384.621Z" fill="#63519F"/>
<path d="M885.539 527V499H897.659C900.165 499 902.325 499.413 904.139 500.24C905.952 501.04 907.352 502.2 908.339 503.72C909.325 505.24 909.819 507.053 909.819 509.16C909.819 511.24 909.325 513.04 908.339 514.56C907.352 516.053 905.952 517.2 904.139 518C902.325 518.8 900.165 519.2 897.659 519.2H889.139L892.019 516.36V527H885.539ZM903.339 527L896.339 516.84H903.259L910.339 527H903.339ZM892.019 517.08L889.139 514.04H897.299C899.299 514.04 900.792 513.613 901.779 512.76C902.765 511.88 903.259 510.68 903.259 509.16C903.259 507.613 902.765 506.413 901.779 505.56C900.792 504.707 899.299 504.28 897.299 504.28H889.139L892.019 501.2V517.08ZM925.193 527.32C922.739 527.32 920.579 526.84 918.713 525.88C916.873 524.92 915.446 523.613 914.433 521.96C913.419 520.28 912.913 518.373 912.913 516.24C912.913 514.08 913.406 512.173 914.393 510.52C915.406 508.84 916.779 507.533 918.513 506.6C920.246 505.64 922.206 505.16 924.393 505.16C926.499 505.16 928.393 505.613 930.073 506.52C931.779 507.4 933.126 508.68 934.113 510.36C935.099 512.013 935.593 514 935.593 516.32C935.593 516.56 935.579 516.84 935.553 517.16C935.526 517.453 935.499 517.733 935.473 518H917.993V514.36H932.193L929.793 515.44C929.793 514.32 929.566 513.347 929.113 512.52C928.659 511.693 928.033 511.053 927.233 510.6C926.433 510.12 925.499 509.88 924.433 509.88C923.366 509.88 922.419 510.12 921.593 510.6C920.793 511.053 920.166 511.707 919.713 512.56C919.259 513.387 919.033 514.373 919.033 515.52V516.48C919.033 517.653 919.286 518.693 919.793 519.6C920.326 520.48 921.059 521.16 921.993 521.64C922.953 522.093 924.073 522.32 925.353 522.32C926.499 522.32 927.499 522.147 928.353 521.8C929.233 521.453 930.033 520.933 930.753 520.24L934.073 523.84C933.086 524.96 931.846 525.827 930.353 526.44C928.859 527.027 927.139 527.32 925.193 527.32ZM948.987 527.32C946.961 527.32 945.134 526.867 943.507 525.96C941.881 525.027 940.587 523.733 939.627 522.08C938.694 520.427 938.227 518.48 938.227 516.24C938.227 513.973 938.694 512.013 939.627 510.36C940.587 508.707 941.881 507.427 943.507 506.52C945.134 505.613 946.961 505.16 948.987 505.16C950.801 505.16 952.387 505.56 953.747 506.36C955.107 507.16 956.161 508.373 956.907 510C957.654 511.627 958.027 513.707 958.027 516.24C958.027 518.747 957.667 520.827 956.947 522.48C956.227 524.107 955.187 525.32 953.827 526.12C952.494 526.92 950.881 527.32 948.987 527.32ZM950.067 522.2C951.081 522.2 952.001 521.96 952.827 521.48C953.654 521 954.307 520.32 954.787 519.44C955.294 518.533 955.547 517.467 955.547 516.24C955.547 514.987 955.294 513.92 954.787 513.04C954.307 512.16 953.654 511.48 952.827 511C952.001 510.52 951.081 510.28 950.067 510.28C949.027 510.28 948.094 510.52 947.267 511C946.441 511.48 945.774 512.16 945.267 513.04C944.787 513.92 944.547 514.987 944.547 516.24C944.547 517.467 944.787 518.533 945.267 519.44C945.774 520.32 946.441 521 947.267 521.48C948.094 521.96 949.027 522.2 950.067 522.2ZM955.707 527V522.6L955.827 516.2L955.427 509.84V497.32H961.667V527H955.707ZM967.883 527V499H974.363V521.72H988.403V527H967.883ZM991.583 527V505.48H997.823V527H991.583ZM994.703 502.48C993.556 502.48 992.623 502.147 991.903 501.48C991.183 500.813 990.823 499.987 990.823 499C990.823 498.013 991.183 497.187 991.903 496.52C992.623 495.853 993.556 495.52 994.703 495.52C995.85 495.52 996.783 495.84 997.503 496.48C998.223 497.093 998.583 497.893 998.583 498.88C998.583 499.92 998.223 500.787 997.503 501.48C996.81 502.147 995.876 502.48 994.703 502.48ZM1013.73 535.08C1011.71 535.08 1009.75 534.827 1007.85 534.32C1005.99 533.84 1004.43 533.107 1003.17 532.12L1005.65 527.64C1006.56 528.387 1007.71 528.973 1009.09 529.4C1010.51 529.853 1011.89 530.08 1013.25 530.08C1015.47 530.08 1017.07 529.587 1018.05 528.6C1019.07 527.613 1019.57 526.147 1019.57 524.2V520.96L1019.97 515.56L1019.89 510.12V505.48H1025.81V523.4C1025.81 527.4 1024.77 530.347 1022.69 532.24C1020.61 534.133 1017.63 535.08 1013.73 535.08ZM1012.77 525.96C1010.77 525.96 1008.96 525.533 1007.33 524.68C1005.73 523.8 1004.44 522.587 1003.45 521.04C1002.49 519.467 1002.01 517.64 1002.01 515.56C1002.01 513.453 1002.49 511.627 1003.45 510.08C1004.44 508.507 1005.73 507.293 1007.33 506.44C1008.96 505.587 1010.77 505.16 1012.77 505.16C1014.59 505.16 1016.19 505.533 1017.57 506.28C1018.96 507 1020.04 508.133 1020.81 509.68C1021.59 511.2 1021.97 513.16 1021.97 515.56C1021.97 517.933 1021.59 519.893 1020.81 521.44C1020.04 522.96 1018.96 524.093 1017.57 524.84C1016.19 525.587 1014.59 525.96 1012.77 525.96ZM1014.01 520.84C1015.11 520.84 1016.08 520.627 1016.93 520.2C1017.79 519.747 1018.45 519.12 1018.93 518.32C1019.41 517.52 1019.65 516.6 1019.65 515.56C1019.65 514.493 1019.41 513.573 1018.93 512.8C1018.45 512 1017.79 511.387 1016.93 510.96C1016.08 510.507 1015.11 510.28 1014.01 510.28C1012.92 510.28 1011.95 510.507 1011.09 510.96C1010.24 511.387 1009.56 512 1009.05 512.8C1008.57 513.573 1008.33 514.493 1008.33 515.56C1008.33 516.6 1008.57 517.52 1009.05 518.32C1009.56 519.12 1010.24 519.747 1011.09 520.2C1011.95 520.627 1012.92 520.84 1014.01 520.84ZM1044.7 505.16C1046.41 505.16 1047.93 505.507 1049.26 506.2C1050.62 506.867 1051.69 507.907 1052.46 509.32C1053.24 510.707 1053.62 512.493 1053.62 514.68V527H1047.38V515.64C1047.38 513.907 1047 512.627 1046.22 511.8C1045.48 510.973 1044.41 510.56 1043.02 510.56C1042.04 510.56 1041.14 510.773 1040.34 511.2C1039.57 511.6 1038.96 512.227 1038.5 513.08C1038.08 513.933 1037.86 515.027 1037.86 516.36V527H1031.62V497.32H1037.86V511.44L1036.46 509.64C1037.24 508.2 1038.34 507.093 1039.78 506.32C1041.22 505.547 1042.86 505.16 1044.7 505.16ZM1068.08 527.32C1065.55 527.32 1063.57 526.68 1062.16 525.4C1060.75 524.093 1060.04 522.16 1060.04 519.6V500.72H1066.28V519.52C1066.28 520.427 1066.52 521.133 1067 521.64C1067.48 522.12 1068.13 522.36 1068.96 522.36C1069.95 522.36 1070.79 522.093 1071.48 521.56L1073.16 525.96C1072.52 526.413 1071.75 526.76 1070.84 527C1069.96 527.213 1069.04 527.32 1068.08 527.32ZM1056.72 510.76V505.96H1071.64V510.76H1056.72ZM916.538 559.28H930.018V564.32H916.538V559.28ZM917.018 570.8H932.258V576H910.578V548H931.738V553.2H917.018V570.8ZM942.618 576L933.578 554.48H940.018L947.538 573H944.338L952.138 554.48H958.138L949.058 576H942.618ZM970.779 576.32C968.325 576.32 966.165 575.84 964.299 574.88C962.459 573.92 961.032 572.613 960.019 570.96C959.005 569.28 958.499 567.373 958.499 565.24C958.499 563.08 958.992 561.173 959.979 559.52C960.992 557.84 962.365 556.533 964.099 555.6C965.832 554.64 967.792 554.16 969.979 554.16C972.085 554.16 973.979 554.613 975.659 555.52C977.365 556.4 978.712 557.68 979.699 559.36C980.685 561.013 981.179 563 981.179 565.32C981.179 565.56 981.165 565.84 981.139 566.16C981.112 566.453 981.085 566.733 981.059 567H963.579V563.36H977.779L975.379 564.44C975.379 563.32 975.152 562.347 974.699 561.52C974.245 560.693 973.619 560.053 972.819 559.6C972.019 559.12 971.085 558.88 970.019 558.88C968.952 558.88 968.005 559.12 967.179 559.6C966.379 560.053 965.752 560.707 965.299 561.56C964.845 562.387 964.619 563.373 964.619 564.52V565.48C964.619 566.653 964.872 567.693 965.379 568.6C965.912 569.48 966.645 570.16 967.579 570.64C968.539 571.093 969.659 571.32 970.939 571.32C972.085 571.32 973.085 571.147 973.939 570.8C974.819 570.453 975.619 569.933 976.339 569.24L979.659 572.84C978.672 573.96 977.432 574.827 975.939 575.44C974.445 576.027 972.725 576.32 970.779 576.32ZM998.413 554.16C1000.12 554.16 1001.64 554.507 1002.97 555.2C1004.33 555.867 1005.4 556.907 1006.17 558.32C1006.95 559.707 1007.33 561.493 1007.33 563.68V576H1001.09V564.64C1001.09 562.907 1000.71 561.627 999.933 560.8C999.186 559.973 998.12 559.56 996.733 559.56C995.746 559.56 994.853 559.773 994.053 560.2C993.28 560.6 992.666 561.227 992.213 562.08C991.786 562.933 991.573 564.027 991.573 565.36V576H985.333V554.48H991.293V560.44L990.173 558.64C990.946 557.2 992.053 556.093 993.493 555.32C994.933 554.547 996.573 554.16 998.413 554.16ZM1021.79 576.32C1019.26 576.32 1017.28 575.68 1015.87 574.4C1014.46 573.093 1013.75 571.16 1013.75 568.6V549.72H1019.99V568.52C1019.99 569.427 1020.23 570.133 1020.71 570.64C1021.19 571.12 1021.84 571.36 1022.67 571.36C1023.66 571.36 1024.5 571.093 1025.19 570.56L1026.87 574.96C1026.23 575.413 1025.46 575.76 1024.55 576C1023.67 576.213 1022.75 576.32 1021.79 576.32ZM1010.43 559.76V554.96H1025.35V559.76H1010.43ZM1037.61 576.32C1035.77 576.32 1034 576.107 1032.29 575.68C1030.61 575.227 1029.28 574.667 1028.29 574L1030.37 569.52C1031.36 570.133 1032.52 570.64 1033.85 571.04C1035.21 571.413 1036.55 571.6 1037.85 571.6C1039.29 571.6 1040.31 571.427 1040.89 571.08C1041.51 570.733 1041.81 570.253 1041.81 569.64C1041.81 569.133 1041.57 568.76 1041.09 568.52C1040.64 568.253 1040.03 568.053 1039.25 567.92C1038.48 567.787 1037.63 567.653 1036.69 567.52C1035.79 567.387 1034.87 567.213 1033.93 567C1033 566.76 1032.15 566.413 1031.37 565.96C1030.6 565.507 1029.97 564.893 1029.49 564.12C1029.04 563.347 1028.81 562.347 1028.81 561.12C1028.81 559.76 1029.2 558.56 1029.97 557.52C1030.77 556.48 1031.92 555.667 1033.41 555.08C1034.91 554.467 1036.69 554.16 1038.77 554.16C1040.24 554.16 1041.73 554.32 1043.25 554.64C1044.77 554.96 1046.04 555.427 1047.05 556.04L1044.97 560.48C1043.93 559.867 1042.88 559.453 1041.81 559.24C1040.77 559 1039.76 558.88 1038.77 558.88C1037.39 558.88 1036.37 559.067 1035.73 559.44C1035.09 559.813 1034.77 560.293 1034.77 560.88C1034.77 561.413 1035 561.813 1035.45 562.08C1035.93 562.347 1036.56 562.56 1037.33 562.72C1038.11 562.88 1038.95 563.027 1039.85 563.16C1040.79 563.267 1041.72 563.44 1042.65 563.68C1043.59 563.92 1044.43 564.267 1045.17 564.72C1045.95 565.147 1046.57 565.747 1047.05 566.52C1047.53 567.267 1047.77 568.253 1047.77 569.48C1047.77 570.813 1047.37 572 1046.57 573.04C1045.77 574.053 1044.61 574.853 1043.09 575.44C1041.6 576.027 1039.77 576.32 1037.61 576.32ZM888.39 625V597H893.75L905.67 616.76H902.83L914.55 597H919.87L919.95 625H913.87L913.83 606.32H914.95L905.59 622.04H902.67L893.11 606.32H894.47V625H888.39ZM939.353 625V620.8L938.953 619.88V612.36C938.953 611.027 938.54 609.987 937.713 609.24C936.913 608.493 935.673 608.12 933.993 608.12C932.847 608.12 931.713 608.307 930.593 608.68C929.5 609.027 928.567 609.507 927.793 610.12L925.553 605.76C926.727 604.933 928.14 604.293 929.793 603.84C931.447 603.387 933.127 603.16 934.833 603.16C938.113 603.16 940.66 603.933 942.473 605.48C944.287 607.027 945.193 609.44 945.193 612.72V625H939.353ZM932.793 625.32C931.113 625.32 929.673 625.04 928.473 624.48C927.273 623.893 926.353 623.107 925.713 622.12C925.073 621.133 924.753 620.027 924.753 618.8C924.753 617.52 925.06 616.4 925.673 615.44C926.313 614.48 927.313 613.733 928.673 613.2C930.033 612.64 931.807 612.36 933.993 612.36H939.713V616H934.673C933.207 616 932.193 616.24 931.633 616.72C931.1 617.2 930.833 617.8 930.833 618.52C930.833 619.32 931.14 619.96 931.753 620.44C932.393 620.893 933.26 621.12 934.353 621.12C935.393 621.12 936.327 620.88 937.153 620.4C937.98 619.893 938.58 619.16 938.953 618.2L939.913 621.08C939.46 622.467 938.633 623.52 937.433 624.24C936.233 624.96 934.687 625.32 932.793 625.32ZM963.921 603.16C965.628 603.16 967.148 603.507 968.481 604.2C969.841 604.867 970.908 605.907 971.681 607.32C972.454 608.707 972.841 610.493 972.841 612.68V625H966.601V613.64C966.601 611.907 966.214 610.627 965.441 609.8C964.694 608.973 963.628 608.56 962.241 608.56C961.254 608.56 960.361 608.773 959.561 609.2C958.788 609.6 958.174 610.227 957.721 611.08C957.294 611.933 957.081 613.027 957.081 614.36V625H950.841V603.48H956.801V609.44L955.681 607.64C956.454 606.2 957.561 605.093 959.001 604.32C960.441 603.547 962.081 603.16 963.921 603.16ZM991.697 625V620.8L991.297 619.88V612.36C991.297 611.027 990.884 609.987 990.057 609.24C989.257 608.493 988.017 608.12 986.337 608.12C985.191 608.12 984.057 608.307 982.937 608.68C981.844 609.027 980.911 609.507 980.137 610.12L977.897 605.76C979.071 604.933 980.484 604.293 982.137 603.84C983.791 603.387 985.471 603.16 987.177 603.16C990.457 603.16 993.004 603.933 994.817 605.48C996.631 607.027 997.537 609.44 997.537 612.72V625H991.697ZM985.137 625.32C983.457 625.32 982.017 625.04 980.817 624.48C979.617 623.893 978.697 623.107 978.057 622.12C977.417 621.133 977.097 620.027 977.097 618.8C977.097 617.52 977.404 616.4 978.017 615.44C978.657 614.48 979.657 613.733 981.017 613.2C982.377 612.64 984.151 612.36 986.337 612.36H992.057V616H987.017C985.551 616 984.537 616.24 983.977 616.72C983.444 617.2 983.177 617.8 983.177 618.52C983.177 619.32 983.484 619.96 984.097 620.44C984.737 620.893 985.604 621.12 986.697 621.12C987.737 621.12 988.671 620.88 989.497 620.4C990.324 619.893 990.924 619.16 991.297 618.2L992.257 621.08C991.804 622.467 990.977 623.52 989.777 624.24C988.577 624.96 987.031 625.32 985.137 625.32ZM1013.46 633.08C1011.43 633.08 1009.47 632.827 1007.58 632.32C1005.71 631.84 1004.15 631.107 1002.9 630.12L1005.38 625.64C1006.29 626.387 1007.43 626.973 1008.82 627.4C1010.23 627.853 1011.62 628.08 1012.98 628.08C1015.19 628.08 1016.79 627.587 1017.78 626.6C1018.79 625.613 1019.3 624.147 1019.3 622.2V618.96L1019.7 613.56L1019.62 608.12V603.48H1025.54V621.4C1025.54 625.4 1024.5 628.347 1022.42 630.24C1020.34 632.133 1017.35 633.08 1013.46 633.08ZM1012.5 623.96C1010.5 623.96 1008.69 623.533 1007.06 622.68C1005.46 621.8 1004.17 620.587 1003.18 619.04C1002.22 617.467 1001.74 615.64 1001.74 613.56C1001.74 611.453 1002.22 609.627 1003.18 608.08C1004.17 606.507 1005.46 605.293 1007.06 604.44C1008.69 603.587 1010.5 603.16 1012.5 603.16C1014.31 603.16 1015.91 603.533 1017.3 604.28C1018.69 605 1019.77 606.133 1020.54 607.68C1021.31 609.2 1021.7 611.16 1021.7 613.56C1021.7 615.933 1021.31 617.893 1020.54 619.44C1019.77 620.96 1018.69 622.093 1017.3 622.84C1015.91 623.587 1014.31 623.96 1012.5 623.96ZM1013.74 618.84C1014.83 618.84 1015.81 618.627 1016.66 618.2C1017.51 617.747 1018.18 617.12 1018.66 616.32C1019.14 615.52 1019.38 614.6 1019.38 613.56C1019.38 612.493 1019.14 611.573 1018.66 610.8C1018.18 610 1017.51 609.387 1016.66 608.96C1015.81 608.507 1014.83 608.28 1013.74 608.28C1012.65 608.28 1011.67 608.507 1010.82 608.96C1009.97 609.387 1009.29 610 1008.78 610.8C1008.3 611.573 1008.06 612.493 1008.06 613.56C1008.06 614.6 1008.3 615.52 1008.78 616.32C1009.29 617.12 1009.97 617.747 1010.82 618.2C1011.67 618.627 1012.65 618.84 1013.74 618.84ZM1042.03 625.32C1039.58 625.32 1037.42 624.84 1035.55 623.88C1033.71 622.92 1032.28 621.613 1031.27 619.96C1030.26 618.28 1029.75 616.373 1029.75 614.24C1029.75 612.08 1030.24 610.173 1031.23 608.52C1032.24 606.84 1033.62 605.533 1035.35 604.6C1037.08 603.64 1039.04 603.16 1041.23 603.16C1043.34 603.16 1045.23 603.613 1046.91 604.52C1048.62 605.4 1049.96 606.68 1050.95 608.36C1051.94 610.013 1052.43 612 1052.43 614.32C1052.43 614.56 1052.42 614.84 1052.39 615.16C1052.36 615.453 1052.34 615.733 1052.31 616H1034.83V612.36H1049.03L1046.63 613.44C1046.63 612.32 1046.4 611.347 1045.95 610.52C1045.5 609.693 1044.87 609.053 1044.07 608.6C1043.27 608.12 1042.34 607.88 1041.27 607.88C1040.2 607.88 1039.26 608.12 1038.43 608.6C1037.63 609.053 1037 609.707 1036.55 610.56C1036.1 611.387 1035.87 612.373 1035.87 613.52V614.48C1035.87 615.653 1036.12 616.693 1036.63 617.6C1037.16 618.48 1037.9 619.16 1038.83 619.64C1039.79 620.093 1040.91 620.32 1042.19 620.32C1043.34 620.32 1044.34 620.147 1045.19 619.8C1046.07 619.453 1046.87 618.933 1047.59 618.24L1050.91 621.84C1049.92 622.96 1048.68 623.827 1047.19 624.44C1045.7 625.027 1043.98 625.32 1042.03 625.32ZM1056.58 625V603.48H1062.54V609.56L1061.7 607.8C1062.34 606.28 1063.37 605.133 1064.78 604.36C1066.2 603.56 1067.92 603.16 1069.94 603.16V608.92C1069.68 608.893 1069.44 608.88 1069.22 608.88C1069.01 608.853 1068.78 608.84 1068.54 608.84C1066.84 608.84 1065.45 609.333 1064.38 610.32C1063.34 611.28 1062.82 612.787 1062.82 614.84V625H1056.58Z" fill="#63519F"/>
<defs>
<clipPath id="clip0_11_147">
<rect width="380" height="380" fill="white" transform="translate(273.661 101.119) rotate(14.328)"/>
</clipPath>
<clipPath id="clip1_11_147">
<rect width="380" height="380" fill="white" transform="translate(254.199 112.662) rotate(14.328)"/>
</clipPath>
</defs>
</svg>
